<svg id="Component_2_1" data-name="Component 2 – 1" xmlns="http://www.w3.org/2000/svg" width="165.211" height="69.694" viewBox="0 0 165.211 69.694">
  <g id="Group_21" data-name="Group 21">
    <g id="Logo_-_Main" data-name="Logo - Main" transform="translate(0 0)">
      <path id="Path_3" data-name="Path 3" d="M365.327,378.524c-1.3-1.072-2.58-2.168-3.918-3.191-.216-.165-.684.006-1.036.012a22.7,22.7,0,0,1-3.477.029c-3.374-.465-5.308-2.6-5.7-6.139a29.746,29.746,0,0,1-.176-3.124c-.018-4.868-.083-9.737.036-14.6a14.181,14.181,0,0,1,.951-4.682c.893-2.307,2.851-3.425,5.26-3.77.376-.054.752-.1,1.193-.165-.58-3.388-1.061-6.719-1.749-10.006a4.03,4.03,0,0,1,1.181-4.02q8.131-8.085,16.254-16.176a1.131,1.131,0,0,1,.212-.082c.2,1.139.354,2.27.623,3.372a3.764,3.764,0,0,1-.454,2.8c-1.278,2.426-2.469,4.9-3.692,7.354-.13.261-.247.529-.45.964l33.13-5.642c-.875-.841-1.595-1.53-2.312-2.221-1.655-1.595-3.325-3.175-4.95-4.8a2.509,2.509,0,0,1-.63-1.209c-.289-1.4-.5-2.817-.734-4.227h.179q4.665,2.26,9.33,4.518c4.185,2.018,8.387,4,12.543,6.077a2.5,2.5,0,0,1,1.208,1.517c.712,3.687,1.375,7.387,1.907,11.1a5.243,5.243,0,0,1-4.235,5.629c-3.746.724-7.517,1.315-11.279,1.958-2.233.382-4.466.767-6.7,1.124a5.4,5.4,0,0,1-6.158-4.317c-.212-1.113-.378-2.234-.572-3.351-.188-1.082-.385-2.163-.6-3.386l-4.929.829c.314,1.894.533,3.725.933,5.515.68,3.044-.111,5.418-3.028,7.083.312.05.484.084.659.1.2.022.408.03.71.051v.9q0,11.735-.006,23.469a7.839,7.839,0,0,1-2.079,5.823,5,5,0,0,1-.538.471c-2.4,1.8-7.158,1.875-9.59.128a6.881,6.881,0,0,1-2.63-5.271,18.469,18.469,0,0,1-.064-1.879q-.006-10.077,0-20.155V345.7l-4.587.788c1.1,2.322,1.032,4.714,1.023,7.1-.015,3.971-.025,7.943,0,11.914.017,2.4-.062,4.776-1.3,6.98l3.6,2.868-2.641,3.169Zm49.539-55.3L393.853,326.8a1.446,1.446,0,0,0-.061.313c.546,3.291,1.081,6.585,1.677,9.868.039.216.553.5.834.486a18.437,18.437,0,0,0,2.205-.337c5.727-.971,11.452-1.955,17.184-2.9.837-.138,1.01-.542.856-1.291-.2-.963-.343-1.936-.51-2.905C415.654,327.81,415.272,325.584,414.866,323.227Zm-54.386,9.261a3.57,3.57,0,0,0,0,.508q.809,4.8,1.625,9.6c.1.594.476.672.989.584,6.4-1.1,12.79-2.222,19.2-3.269.974-.159,1.081-.578.927-1.381-.263-1.374-.475-2.758-.714-4.137-.314-1.808-.633-3.615-.961-5.492Zm14.366,12.37c-.02.23-.044.375-.044.52q0,11.228.007,22.456a5.452,5.452,0,0,0,.185,1.322,2.361,2.361,0,0,0,2.52,1.956,2.321,2.321,0,0,0,2.334-2.06,8.529,8.529,0,0,0,.169-1.684q.017-11.138.007-22.277V344Zm-13.437,14.4c0-2.747.011-5.493-.009-8.24a7.38,7.38,0,0,0-.2-1.68,2.453,2.453,0,0,0-2.435-1.99,2.413,2.413,0,0,0-2.481,1.806,6.811,6.811,0,0,0-.288,1.932q-.033,8.2,0,16.391a6.673,6.673,0,0,0,.316,1.925,2.343,2.343,0,0,0,2.435,1.723,2.371,2.371,0,0,0,2.432-1.859,6.743,6.743,0,0,0,.217-1.677C361.421,364.814,361.409,362.038,361.409,359.261Z" transform="translate(-333.432 -308.83)" fill="#fff"/>
      <path id="Path_4" data-name="Path 4" d="M253,521.032h4.956c0,.66-.036,1.278.009,1.89a10.026,10.026,0,0,0,.289,2.112,2.142,2.142,0,0,0,2.252,1.554,1.994,1.994,0,0,0,2.054-1.547c.693-2.543.6-5.791-1.835-7.815-1.1-.917-2.177-1.865-3.317-2.729-3.208-2.433-4.2-5.72-3.79-9.572.047-.444.1-.89.192-1.327.819-3.928,3.344-5.772,7.442-5.443,3.591.288,5.6,2.275,5.9,5.855.089,1.09.11,2.186.165,3.343H262.52c-.053-.943-.093-1.857-.163-2.769a4.644,4.644,0,0,0-.19-.96,1.64,1.64,0,0,0-1.708-1.289,1.618,1.618,0,0,0-1.738,1.255c-.615,2.306-.538,4.878,1.666,6.587,1.132.877,2.247,1.775,3.374,2.659a9.762,9.762,0,0,1,4.016,8.02,22.046,22.046,0,0,1-.513,5.042,6.135,6.135,0,0,1-6.059,4.786,13.732,13.732,0,0,1-2.324-.046,6.076,6.076,0,0,1-5.7-5.966,9.521,9.521,0,0,0-.184-.952Z" transform="translate(-253 -464.06)" fill="#fff"/>
      <path id="Path_5" data-name="Path 5" d="M666.909,532.677h-4.821V501.235c.062-.047.109-.113.156-.113,2.8.028,5.624-.141,8.4.144,3.581.367,5.217,2.038,5.63,5.61a25.653,25.653,0,0,1-.147,5.788A4.717,4.717,0,0,1,673.3,516.5c2.631,1.407,2.747,3.8,2.781,6.224.023,1.671-.024,3.344.014,5.014.037,1.634.143,3.267.222,4.988-1.4,0-2.8.029-4.2-.034-.19-.009-.5-.466-.516-.728-.1-2.114-.15-4.231-.214-6.346-.044-1.49-.023-2.985-.148-4.468-.158-1.874-.891-2.505-2.758-2.57-.5-.017-1,0-1.578,0Zm.039-27.666v9.5c.683,0,1.31.052,1.926-.01a2.438,2.438,0,0,0,2.475-2.274,32.165,32.165,0,0,0,.026-4.985,2.111,2.111,0,0,0-1.8-1.981A25.4,25.4,0,0,0,666.947,505.011Z" transform="translate(-588.785 -466.506)" fill="#fff"/>
      <path id="Path_6" data-name="Path 6" d="M564.333,500.944c1.76,10.53,3.512,21.008,5.279,31.578h-5.073c-.368-2.492-.765-4.988-1.088-7.493-.091-.705-.318-.979-1.051-.948-1.305.054-2.614.015-3.973.015-.384,2.873-.754,5.643-1.127,8.439h-4.922c.423-2.684.828-5.3,1.25-7.911,1.23-7.619,2.476-15.236,3.683-22.858.1-.634.291-.851.944-.838C560.25,500.971,562.247,500.944,564.333,500.944Zm-1.64,18.641L560.92,505.77l-.1.012-1.743,13.8Z" transform="translate(-498.734 -466.368)" fill="#fff"/>
      <path id="Path_7" data-name="Path 7" d="M774.13,514.059v4.472h-6.818a6.584,6.584,0,0,0-.084.7c-.005,2.837.011,5.673-.015,8.509-.005.621.192.835.821.826,2.059-.031,4.12-.013,6.18-.009.32,0,.64.027,1.038.045-.208,1.5-.4,2.906-.6,4.36H762.42V501.442H774.5v4.381c-.3.019-.608.056-.921.057-1.851.006-3.7-.015-5.553.024-.268.005-.758.283-.761.442-.048,2.531-.034,5.063-.034,7.713Z" transform="translate(-671.139 -466.789)" fill="#fff"/>
      <path id="Path_8" data-name="Path 8" d="M1099.954,524.811c0-.5.031-.859-.006-1.213-.08-.753.248-.99.978-.966,1.12.037,1.076,0,1.139,1.15a16.551,16.551,0,0,0,.379,3.178c.474,1.848,1.738,2.618,3.866,2.556a3.12,3.12,0,0,0,3-2.709,14.058,14.058,0,0,0,0-6.555,8.1,8.1,0,0,0-2.979-4.25c-.936-.787-1.906-1.535-2.843-2.321a7.507,7.507,0,0,1-2.935-6.154,21.5,21.5,0,0,1,.445-4.685c.686-2.7,2.712-3.851,5.779-3.608a4.683,4.683,0,0,1,4.391,4.517c.106.915.119,1.841.188,2.762.037.485-.138.737-.652.71a8.527,8.527,0,0,0-.9,0c-.517.027-.65-.234-.657-.713a15.725,15.725,0,0,0-.153-2.491c-.351-2-1.33-2.908-3.013-2.925a2.9,2.9,0,0,0-3.074,2.774,20.138,20.138,0,0,0-.02,4.867,5.4,5.4,0,0,0,2.266,3.428c1.322,1.116,2.691,2.181,3.961,3.353a7.816,7.816,0,0,1,2.592,5.981,28.2,28.2,0,0,1-.406,5.856c-.724,3.267-3.019,4.171-5.907,4.106-3.068-.069-5.268-2.033-5.406-6.069C1099.976,525.149,1099.959,524.911,1099.954,524.811Z" transform="translate(-948.177 -464.95)" fill="#fff"/>
      <path id="Path_9" data-name="Path 9" d="M1032.481,516.868c0,4.548.006,8.935-.006,13.323,0,.654.421.609.845.609q3.046,0,6.092,0h1.034c-.03.378-.063.664-.074.95-.025.678-.292.995-1.047.984-2.717-.04-5.435-.034-8.152,0-.706.008-.909-.225-.908-.93q.032-14.827,0-29.654c0-.706.2-.922.908-.912,2.657.039,5.316.05,7.973,0,.841-.017.9.364.9,1.023-.008.634-.01,1.063-.88,1.037-2.175-.063-4.353-.021-6.61-.021-.028.31-.07.566-.07.821,0,3.285.02,6.57-.02,9.855-.009.769.252.955.974.938,1.821-.045,3.644.014,5.464-.029.695-.016.785.31.761.87-.023.542.1,1.081-.77,1.059-1.731-.044-3.464-.017-5.2-.007C1033.316,516.779,1032.937,516.832,1032.481,516.868Z" transform="translate(-890.99 -466.616)" fill="#fff"/>
      <path id="Path_10" data-name="Path 10" d="M884.333,530.8c0,.406.019.671,0,.934-.059.679-.32,1.025-1.124,1.007-2.656-.058-5.315-.051-7.972,0-.815.014-.988-.274-.987-1.037q.035-14.736,0-29.473c0-.8.231-1.008,1.011-.994,2.627.047,5.256.055,7.882,0,.875-.019.861.414.871,1.042.011.661-.053,1.045-.9,1.018-1.939-.063-3.882.006-5.822-.034-.682-.014-.961.173-.956.89.024,3.284.019,6.569,0,9.854,0,.638.207.9.885.882,1.88-.039,3.763.014,5.643-.027.687-.015.8.293.768.862-.029.533.118,1.086-.759,1.066-1.85-.041-3.7.013-5.554-.021-.74-.013-.992.262-.988.994q.034,6.047,0,12.094c0,.752.278.974,1,.963C879.631,530.775,881.926,530.8,884.333,530.8Z" transform="translate(-762.926 -466.612)" fill="#fff"/>
      <path id="Path_11" data-name="Path 11" d="M939.9,501.289c.126-.075.151-.1.177-.1,2.086-.169,2.085-.169,2.649,1.831q1.9,6.742,3.8,13.484a7.605,7.605,0,0,0,.334.761c.384-1.424.7-2.653,1.046-3.873q1.549-5.451,3.12-10.9c.442-1.529.123-1.313,1.78-1.333.234,0,.469.022.839.041-.379,1.276-.728,2.488-1.1,3.694-1.464,4.746-2.95,9.486-4.387,14.241a8.62,8.62,0,0,0-.348,2.368c-.038,3.372-.045,6.745,0,10.116.013.89-.36,1.018-1.114,1.029-.772.012-1.03-.211-1.021-1.013.042-3.461.032-6.923,0-10.385a6.9,6.9,0,0,0-.291-1.925c-1.715-5.638-3.46-11.266-5.193-16.9C940.086,502.061,940,501.686,939.9,501.289Z" transform="translate(-816.815 -466.522)" fill="#fff"/>
    </g>
    <path id="Path_17" data-name="Path 17" d="M632.614,410.771a2.776,2.776,0,0,1-2.8-2.814,2.814,2.814,0,0,1,2.813-2.824,2.874,2.874,0,0,1,2.821,2.837A2.814,2.814,0,0,1,632.614,410.771Zm.828-2.785a.785.785,0,0,0-.8-.842.819.819,0,0,0-.857.8.842.842,0,0,0,.815.857A.82.82,0,0,0,633.442,407.986Z" transform="translate(-560.803 -385.921)" fill="#f9f7f7"/>
    <path id="Path_18" data-name="Path 18" d="M443.007,436.795a2.793,2.793,0,0,1,2.832,2.86,2.834,2.834,0,0,1-2.869,2.846,2.892,2.892,0,0,1-2.856-2.882A2.851,2.851,0,0,1,443.007,436.795Zm.021,3.674a.9.9,0,0,0,.841-.881.873.873,0,0,0-.883-.828.833.833,0,0,0-.825.867A.874.874,0,0,0,443.028,440.469Z" transform="translate(-405.391 -411.945)" fill="#f9f7f7"/>
  </g>
</svg>
